<?xml version="1.0" standalone="no"?>
<!DOCTYPE svg PUBLIC "-//W3C//DTD SVG 20010904//EN"
 "http://www.w3.org/TR/2001/REC-SVG-20010904/DTD/svg10.dtd">
<svg version="1.0" xmlns="http://www.w3.org/2000/svg"
 width="512.000000pt" height="512.000000pt" viewBox="0 0 512.000000 512.000000"
 preserveAspectRatio="xMidYMid meet">
<metadata>
Created by potrace 1.14, written by Peter Selinger 2001-2017
</metadata>
<g transform="translate(0.000000,512.000000) scale(0.100000,-0.100000)"
fill="#000000" stroke="none">
<path d="M2397 5105 c-516 -104 -817 -639 -636 -1133 119 -326 426 -547 775
-557 431 -12 804 302 869 730 7 47 8 232 1 243 -2 4 -7 25 -10 47 -9 60 -34
132 -73 209 -116 234 -322 396 -583 457 -71 17 -266 19 -343 4z"/>
<path d="M760 4377 c-64 -61 -122 -126 -221 -244 -47 -57 -172 -249 -227 -351
-34 -62 -62 -115 -62 -117 0 -2 -15 -36 -34 -77 -54 -119 -134 -356 -150 -448
-2 -14 -7 -36 -10 -50 -44 -190 -65 -557 -44 -780 45 -469 250 -981 534 -1330
303 -372 650 -631 1071 -799 295 -117 572 -171 903 -176 233 -3 348 7 570 52
121 24 375 102 468 144 436 195 788 473 1052 829 38 52 73 100 77 105 77 101
240 428 294 590 26 80 86 305 93 352 3 21 8 52 11 68 24 138 30 218 30 410 0
99 -3 214 -7 255 -58 582 -316 1130 -725 1545 -112 114 -67 132 -343 -144
l-241 -241 60 -55 c308 -286 528 -740 570 -1175 9 -95 7 -331 -4 -400 -3 -25
-9 -61 -11 -80 -19 -132 -85 -345 -150 -487 -32 -70 -140 -261 -154 -273 -3
-3 -23 -30 -45 -60 -196 -272 -518 -516 -840 -635 -55 -20 -106 -39 -115 -40
-8 -2 -31 -9 -50 -15 -201 -61 -517 -82 -750 -50 -678 92 -1269 560 -1504
1193 -41 109 -83 259 -92 327 -3 25 -8 48 -10 51 -16 28 -24 357 -10 489 18
187 93 449 175 617 43 87 157 274 188 308 10 11 40 47 66 80 26 33 80 93 122
134 l74 73 -239 239 c-131 132 -240 239 -242 239 -2 0 -37 -33 -78 -73z"/>
<path d="M1489 3657 c-133 -130 -226 -257 -304 -414 -113 -231 -160 -441 -158
-708 5 -643 430 -1225 1045 -1429 95 -32 219 -62 289 -70 l29 -3 0 934 0 935
-414 414 -414 413 -73 -72z"/>
<path d="M3143 3315 l-413 -413 0 -935 0 -934 28 4 c149 24 300 64 392 105 98
44 118 54 189 96 473 277 764 795 755 1342 -7 402 -160 771 -438 1053 -39 40
-78 78 -86 84 -12 9 -91 -65 -427 -402z"/>
</g>
</svg>
